<svg width="85" height="30" viewBox="0 0 85 30" fill="none" xmlns="http://www.w3.org/2000/svg">
<path d="M5.96004 16.9141L3.12701 22.3312H0L5.3186 13.0002C5.47896 13.2271 5.6304 13.5012 5.77295 13.8227C5.93331 14.1252 6.05802 14.4561 6.14712 14.8153C6.23622 15.1557 6.27184 15.5055 6.25403 15.8647C6.23622 16.2239 6.1382 16.5738 5.96004 16.9141ZM11.9468 22.3312L0.320719 1.71222H3.66155L7.40327 9.00118L7.64381 9.76694L7.85763 9.00118L11.6261 1.71222H14.86L9.16723 11.7239L15.2074 22.3312H11.9468ZM30.996 15.0706C30.996 16.1672 30.8267 17.1788 30.4882 18.1053C30.1496 19.0129 29.6953 19.7975 29.1251 20.4593C28.5728 21.1022 27.9224 21.6127 27.1741 21.9908C26.4435 22.3501 25.6863 22.5297 24.9023 22.5297C24.4747 22.5297 24.0382 22.4919 23.5927 22.4163C23.1473 22.3595 22.6573 22.2366 22.1228 22.0476C22.3722 21.5182 22.684 21.0927 23.0582 20.7713C23.4324 20.4309 23.9045 20.2608 24.4747 20.2608C25.4547 20.2608 26.2832 19.8353 26.9603 18.9845C27.6373 18.1147 27.9759 16.8101 27.9759 15.0706C27.9759 14.2953 27.8957 13.5769 27.7353 12.9151C27.5928 12.2533 27.379 11.6861 27.0939 11.2134C26.8088 10.7218 26.4525 10.3436 26.0248 10.0789C25.615 9.7953 25.1339 9.6535 24.5816 9.6535C23.3878 9.6535 22.2564 10.3342 21.1873 11.6955V29.1663H18.3543V12.6598C18.3543 11.5821 18.3187 10.6462 18.2474 9.85203C18.1939 9.0579 18.0959 8.32996 17.9534 7.66818H20.0381C20.2697 7.85724 20.4568 8.06524 20.5993 8.29213C20.7419 8.51903 20.8755 8.81211 21.0002 9.17135L21.0537 9.6535L21.321 9.14298C21.9268 8.4812 22.5593 8.01798 23.2185 7.75326C23.8956 7.48854 24.5103 7.3562 25.0627 7.3562C26.007 7.3562 26.8444 7.55473 27.575 7.95179C28.3055 8.34886 28.9202 8.8972 29.4191 9.59677C29.9358 10.2775 30.3278 11.0905 30.5951 12.0359C30.8624 12.9623 30.996 13.9739 30.996 15.0706ZM37.2893 0.833008V22.3312H34.483V0.833008H37.2893ZM43.3218 14.9855C43.3218 15.7796 43.402 16.5076 43.5624 17.1693C43.7227 17.8122 43.9546 18.37 44.2573 18.8427C44.578 19.3154 44.9612 19.6841 45.4065 19.9488C45.8699 20.2135 46.3867 20.3459 46.9567 20.3459C47.5627 20.3459 48.0882 20.204 48.5335 19.9204C48.9969 19.6368 49.3801 19.2492 49.6828 18.7576C49.9858 18.266 50.2086 17.6988 50.3509 17.0559C50.4936 16.413 50.5648 15.7229 50.5648 14.9855C50.5648 13.246 50.2173 11.9224 49.5224 11.0149C48.8456 10.1073 47.9903 9.6535 46.9567 9.6535C46.4402 9.6535 45.9591 9.76694 45.5134 9.99384C45.0858 10.2207 44.7029 10.5611 44.3642 11.0149C44.0435 11.4686 43.7852 12.0264 43.5891 12.6882C43.411 13.35 43.3218 14.1157 43.3218 14.9855ZM40.3017 14.9855C40.3017 13.6809 40.4978 12.5559 40.8897 11.6105C41.2996 10.6462 41.8165 9.85203 42.4399 9.22807C43.0813 8.58522 43.7942 8.1125 44.578 7.80999C45.3798 7.50747 46.1729 7.3562 46.9567 7.3562C47.9903 7.3562 48.9167 7.55473 49.7362 7.95179C50.5561 8.32996 51.251 8.85937 51.8209 9.54005C52.4089 10.2207 52.8546 11.0338 53.1572 11.9792C53.4602 12.9056 53.6116 13.9078 53.6116 14.9855C53.6116 16.2145 53.4245 17.3017 53.0503 18.2471C52.6942 19.1925 52.2041 19.996 51.5804 20.6578C50.9747 21.3007 50.2708 21.7923 49.469 22.1326C48.6672 22.473 47.8299 22.6432 46.9567 22.6432C46.048 22.6432 45.184 22.4824 44.3642 22.161C43.5624 21.8207 42.8588 21.329 42.2528 20.6862C41.6648 20.0244 41.1927 19.2209 40.8363 18.2755C40.4801 17.3112 40.3017 16.2145 40.3017 14.9855ZM56.5011 7.66818H58.6392C58.8884 7.9329 59.0755 8.25431 59.2005 8.63247C59.3251 9.01064 59.432 9.4266 59.5212 9.88039V10.4476L59.7617 9.88039C60.1178 9.16188 60.6079 8.57575 61.2317 8.12196C61.8551 7.66818 62.5055 7.44128 63.1827 7.44128C63.6103 7.44128 64.0914 7.52637 64.626 7.69654L64.2785 10.1924C63.7082 10.06 63.2539 9.99384 62.9155 9.99384C62.4878 9.99384 62.0779 10.0978 61.686 10.3058C61.2938 10.4949 60.9377 10.788 60.617 11.185C60.314 11.5821 60.0734 12.0831 59.8953 12.6882C59.7169 13.2743 59.6281 13.9739 59.6281 14.787V22.3312H56.9287V12.5464C56.9287 11.7334 56.8929 10.9014 56.8218 10.0506C56.7683 9.19971 56.6614 8.40558 56.5011 7.66818ZM66.9412 3.41392C66.9412 2.8656 67.1102 2.41181 67.449 2.05256C67.7874 1.6744 68.206 1.48533 68.7051 1.48533C69.2216 1.48533 69.6492 1.6744 69.988 2.05256C70.3264 2.41181 70.4958 2.8656 70.4958 3.41392C70.4958 3.94334 70.3264 4.38769 69.988 4.74692C69.6492 5.10616 69.2216 5.28579 68.7051 5.28579C68.206 5.28579 67.7874 5.10616 67.449 4.74692C67.1102 4.38769 66.9412 3.94334 66.9412 3.41392ZM70.1751 22.3312H67.2619V7.66818H70.1751V22.3312ZM84.5724 13.454V17.4813C84.5724 18.5212 84.5991 19.4383 84.6525 20.2324C84.7237 21.0076 84.8396 21.7072 85 22.3312H82.9153C82.6123 22.1421 82.3718 21.8679 82.1937 21.5087C82.0156 21.1305 81.9174 20.7524 81.8997 20.3742L81.6057 20.8564C80.8931 21.5938 80.2427 22.0759 79.6547 22.3028C79.0844 22.5297 78.461 22.6432 77.7838 22.6432C77.1066 22.6432 76.4919 22.5392 75.9397 22.3312C75.4051 22.1043 74.9508 21.8112 74.5766 21.452C74.2024 21.0738 73.9085 20.6389 73.6946 20.1473C73.4985 19.6368 73.4006 19.0979 73.4006 18.5307C73.4006 17.85 73.5253 17.245 73.7748 16.7156C74.0244 16.1672 74.434 15.6945 75.0042 15.2975C75.5922 14.9004 76.3583 14.5695 77.3027 14.3048C78.2472 14.0401 79.4051 13.8321 80.7772 13.6809C80.7415 13.8889 80.688 14.1157 80.6168 14.3615C80.5457 14.6073 80.4388 14.8437 80.2961 15.0706C80.1535 15.2786 79.9664 15.4676 79.7349 15.6378C79.5033 15.808 79.227 15.9214 78.9063 15.9782C77.873 16.1672 77.1781 16.4792 76.8216 16.9141C76.4832 17.3301 76.3138 17.7933 76.3138 18.3038C76.3138 18.8522 76.5009 19.3343 76.8751 19.7503C77.2493 20.1473 77.7481 20.3459 78.3718 20.3459C78.9421 20.3459 79.521 20.1852 80.109 19.8637C80.697 19.5234 81.2406 19.0034 81.7393 18.3038V13.3122C81.7393 12.2344 81.4811 11.3647 80.9643 10.7029C80.4655 10.0222 79.6456 9.68186 78.5054 9.68186C78.0421 9.68186 77.561 9.72911 77.0622 9.82367C76.5811 9.91822 76.0289 10.0884 75.4051 10.3342L74.7103 8.37722C75.5655 7.98015 76.3496 7.71543 77.0622 7.58309C77.7748 7.45075 78.4252 7.38456 79.0132 7.38456C80.7949 7.38456 82.167 7.91397 83.1291 8.97282C84.0913 10.0127 84.5724 11.5065 84.5724 13.454Z" fill="url(#paint0_linear_1_30474)"/>
<defs>
<linearGradient id="paint0_linear_1_30474" x1="-3.10975" y1="-20.5956" x2="95.2141" y2="63.0939" gradientUnits="userSpaceOnUse">
<stop stop-color="#EB2D7C"/>
<stop offset="1" stop-color="#543393"/>
</linearGradient>
</defs>
</svg>
